<svg width="33" height="32" viewBox="0 0 33 32" fill="none" xmlns="http://www.w3.org/2000/svg">
<path d="M16.5 11C16.5 9.93913 16.9214 8.92172 17.6716 8.17157C18.4217 7.42143 19.4391 7 20.5 7H28.5C28.7652 7 29.0196 7.10536 29.2071 7.29289C29.3946 7.48043 29.5 7.73478 29.5 8V24C29.5 24.2652 29.3946 24.5196 29.2071 24.7071C29.0196 24.8946 28.7652 25 28.5 25H20.5C19.4391 25 18.4217 25.4214 17.6716 26.1716C16.9214 26.9217 16.5 27.9391 16.5 29" stroke="#EE85B2" stroke-width="2" stroke-linecap="round" stroke-linejoin="round"/>
<path d="M3.5 24C3.5 24.2652 3.60536 24.5196 3.79289 24.7071C3.98043 24.8946 4.23478 25 4.5 25H12.5C13.5609 25 14.5783 25.4214 15.3284 26.1716C16.0786 26.9217 16.5 27.9391 16.5 29V11C16.5 9.93913 16.0786 8.92172 15.3284 8.17157C14.5783 7.42143 13.5609 7 12.5 7H4.5C4.23478 7 3.98043 7.10536 3.79289 7.29289C3.60536 7.48043 3.5 7.73478 3.5 8V24Z" stroke="#EE85B2" stroke-width="2" stroke-linecap="round" stroke-linejoin="round"/>
</svg>
