<svg width="33" height="32" viewBox="0 0 33 32" fill="none" xmlns="http://www.w3.org/2000/svg">
<path d="M26.605 9H6.39506C6.14896 9 5.91151 9.09075 5.72814 9.25487C5.54476 9.419 5.42835 9.64498 5.40117 9.88957L3.6234 25.8896C3.60786 26.0293 3.62199 26.1708 3.66486 26.3048C3.70772 26.4387 3.77836 26.5621 3.87215 26.6669C3.96595 26.7717 4.08079 26.8555 4.20919 26.9129C4.33758 26.9703 4.47664 27 4.61728 27H28.3827C28.5234 27 28.6624 26.9703 28.7908 26.9129C28.9192 26.8555 29.0341 26.7717 29.1279 26.6669C29.2217 26.5621 29.2923 26.4387 29.3352 26.3048C29.378 26.1708 29.3922 26.0293 29.3766 25.8896L27.5989 9.88957C27.5717 9.64498 27.4553 9.419 27.2719 9.25487C27.0885 9.09075 26.8511 9 26.605 9Z" stroke="#EE85B2" stroke-width="2" stroke-linecap="round" stroke-linejoin="round"/>
<path d="M11.5 9C11.5 7.67392 12.0268 6.40215 12.9645 5.46447C13.9021 4.52678 15.1739 4 16.5 4C17.8261 4 19.0979 4.52678 20.0355 5.46447C20.9732 6.40215 21.5 7.67392 21.5 9" stroke="#EE85B2" stroke-width="2" stroke-linecap="round" stroke-linejoin="round"/>
</svg>
