<svg width="21" height="24" viewBox="0 0 21 24" fill="none" xmlns="http://www.w3.org/2000/svg">
<path fill-rule="evenodd" clip-rule="evenodd" d="M10.2373 2.39472e-05C12.9496 0.0120254 15.5419 1.09216 17.4381 2.98839C19.3464 4.89663 20.4145 7.47694 20.4025 10.1533V10.2133C20.3305 13.8497 18.2902 17.1981 15.7459 19.8145C14.3058 21.2906 12.7096 22.5988 10.9693 23.7029C10.5013 24.099 9.81721 24.099 9.34915 23.7029C6.76883 22.0227 4.48855 19.9105 2.64032 17.4502C1.02013 15.3139 0.0960118 12.7456 0 10.0693C0.024003 4.48858 4.60857 -0.0119775 10.2373 2.39472e-05ZM10.2373 13.5137C11.0894 13.5137 11.9055 13.1897 12.5055 12.6016C13.1296 11.9895 13.4789 11.1746 13.4789 10.3213C13.4789 8.5451 12.0255 7.11692 10.2373 7.11692C8.44904 7.11692 7.00886 8.5451 7.00886 10.3213C7.00886 12.0747 8.42503 13.4897 10.2013 13.5137H10.2373Z" fill="#EE85B2"/>
</svg>
