<svg width="27" height="24" viewBox="0 0 27 24" fill="none" xmlns="http://www.w3.org/2000/svg">
<path fill-rule="evenodd" clip-rule="evenodd" d="M19.9187 0C21.7067 0 23.4267 0.706667 24.692 1.97467C25.9587 3.24 26.6667 4.94667 26.6667 6.73333V17.2667C26.6667 20.9867 23.64 24 19.9187 24H6.74667C3.02533 24 0 20.9867 0 17.2667V6.73333C0 3.01333 3.012 0 6.74667 0H19.9187ZM22.04 8.72003L22.1467 8.61337C22.4653 8.2267 22.4653 7.6667 22.132 7.28003C21.9467 7.08137 21.692 6.96003 21.4267 6.93337C21.1467 6.9187 20.88 7.01337 20.6787 7.20003L14.6667 12C13.8933 12.6414 12.7853 12.6414 12 12L5.99999 7.20003C5.58532 6.89337 5.01199 6.93337 4.66665 7.29337C4.30665 7.65337 4.26665 8.2267 4.57199 8.6267L4.74665 8.80003L10.8133 13.5334C11.56 14.12 12.4653 14.44 13.4133 14.44C14.3587 14.44 15.28 14.12 16.0253 13.5334L22.04 8.72003Z" fill="#EE85B2"/>
</svg>
