<svg width="17" height="24" viewBox="0 0 17 24" fill="none" xmlns="http://www.w3.org/2000/svg">
<path fill-rule="evenodd" clip-rule="evenodd" d="M0.0101512 10.4338C0.0101512 9.69138 0.0190908 8.94901 0.028072 8.2032C0.0326252 7.82508 0.0371891 7.44608 0.0406042 7.06575C0.0406042 2.97939 2.59867 0 6.13124 0H10.6688C14.2013 0 16.7594 2.97939 16.7594 7.06575C16.7899 8.70265 16.8 10.3395 16.8 11.9882C16.8 13.6369 16.7899 15.2973 16.7594 16.9342C16.7594 21.0206 14.2013 24 10.6688 24H6.13124C2.59867 24 0.0406042 21.0206 0.0406042 16.9225C0.0203021 15.3798 0 13.8018 0 12.2002L0.0101512 10.4338ZM9.936 21.1683V21.3603C9.936 22.1686 9.26016 22.8003 8.4 22.8003C7.56032 22.8003 6.864 22.1686 6.864 21.3603V21.1683C6.864 20.3811 7.56032 19.7283 8.4 19.7283C9.26016 19.7283 9.936 20.3811 9.936 21.1683ZM2.42006 7.73235C2.41364 8.21712 2.40726 8.69967 2.40726 9.18221L2.40001 10.3304C2.40001 11.3714 2.41451 12.3971 2.42901 13.3999C2.42901 16.0637 4.2562 18.0003 6.77946 18.0003H10.0205C12.5438 18.0003 14.371 16.0637 14.371 13.4075C14.3928 12.3435 14.4 11.2643 14.4 10.1926C14.4 9.12098 14.3928 8.05699 14.371 6.99301C14.371 4.33688 12.5438 2.40027 10.0205 2.40027H6.77946C4.2562 2.40027 2.42901 4.33688 2.42901 6.99301C2.42657 7.24022 2.42331 7.48657 2.42006 7.73235Z" fill="#EE85B2"/>
</svg>
